<mxfile host="app.diagrams.net" modified="2023-05-09T09:55:55.788Z" agent="Mozilla/5.0 (Macintosh; Intel Mac OS X 10_15_7) AppleWebKit/605.1.15 (KHTML, like Gecko) Version/15.6 Safari/605.1.15" etag="XVGrO9Wj3vMYJA5OLY-d" version="21.2.9" type="device">
  <diagram id="T815P6-326GQ2lns1X6j" name="페이지-2">
    <mxGraphModel dx="438" dy="205" grid="0" gridSize="10" guides="1" tooltips="1" connect="1" arrows="1" fold="1" page="0" pageScale="1" pageWidth="827" pageHeight="1169" math="0" shadow="0">
      <root>
        <mxCell id="0" />
        <mxCell id="1" parent="0" />
        <mxCell id="zvBkrl2XRBxhGwxwOTIy-1" value=":Recruit" style="rounded=0;whiteSpace=wrap;html=1;" parent="1" vertex="1">
          <mxGeometry x="1046" y="804" width="120" height="60" as="geometry" />
        </mxCell>
        <mxCell id="zvBkrl2XRBxhGwxwOTIy-2" value=":CheckEndedRecruit" style="rounded=0;whiteSpace=wrap;html=1;" parent="1" vertex="1">
          <mxGeometry x="1046" y="654" width="120" height="60" as="geometry" />
        </mxCell>
        <mxCell id="zvBkrl2XRBxhGwxwOTIy-3" value=":CheckEndedRecruit UI" style="rounded=0;whiteSpace=wrap;html=1;" parent="1" vertex="1">
          <mxGeometry x="806" y="654" width="120" height="60" as="geometry" />
        </mxCell>
        <mxCell id="zvBkrl2XRBxhGwxwOTIy-4" value="회사 회원" style="shape=umlActor;verticalLabelPosition=bottom;verticalAlign=top;html=1;outlineConnect=0;" parent="1" vertex="1">
          <mxGeometry x="656" y="654" width="30" height="60" as="geometry" />
        </mxCell>
        <mxCell id="zvBkrl2XRBxhGwxwOTIy-5" value="" style="endArrow=none;html=1;rounded=0;entryX=0;entryY=0.5;entryDx=0;entryDy=0;exitX=0.5;exitY=0.5;exitDx=0;exitDy=0;exitPerimeter=0;" parent="1" source="zvBkrl2XRBxhGwxwOTIy-4" target="zvBkrl2XRBxhGwxwOTIy-3" edge="1">
          <mxGeometry width="50" height="50" relative="1" as="geometry">
            <mxPoint x="1086" y="804" as="sourcePoint" />
            <mxPoint x="1136" y="754" as="targetPoint" />
          </mxGeometry>
        </mxCell>
        <mxCell id="zvBkrl2XRBxhGwxwOTIy-6" value="" style="endArrow=none;html=1;rounded=0;entryX=1;entryY=0.5;entryDx=0;entryDy=0;exitX=0;exitY=0.5;exitDx=0;exitDy=0;" parent="1" source="zvBkrl2XRBxhGwxwOTIy-2" target="zvBkrl2XRBxhGwxwOTIy-3" edge="1">
          <mxGeometry width="50" height="50" relative="1" as="geometry">
            <mxPoint x="1096" y="814" as="sourcePoint" />
            <mxPoint x="1146" y="764" as="targetPoint" />
          </mxGeometry>
        </mxCell>
        <mxCell id="zvBkrl2XRBxhGwxwOTIy-7" value="" style="endArrow=none;html=1;rounded=0;entryX=0.5;entryY=1;entryDx=0;entryDy=0;exitX=0.5;exitY=0;exitDx=0;exitDy=0;" parent="1" source="zvBkrl2XRBxhGwxwOTIy-1" target="zvBkrl2XRBxhGwxwOTIy-2" edge="1">
          <mxGeometry width="50" height="50" relative="1" as="geometry">
            <mxPoint x="1106" y="824" as="sourcePoint" />
            <mxPoint x="1156" y="774" as="targetPoint" />
          </mxGeometry>
        </mxCell>
        <mxCell id="zvBkrl2XRBxhGwxwOTIy-8" value="" style="endArrow=classic;html=1;rounded=0;" parent="1" edge="1">
          <mxGeometry width="50" height="50" relative="1" as="geometry">
            <mxPoint x="1096" y="734" as="sourcePoint" />
            <mxPoint x="1096" y="794" as="targetPoint" />
          </mxGeometry>
        </mxCell>
        <mxCell id="zvBkrl2XRBxhGwxwOTIy-9" value="1.getRecruits()" style="text;html=1;align=center;verticalAlign=middle;resizable=0;points=[];autosize=1;strokeColor=none;fillColor=none;" parent="1" vertex="1">
          <mxGeometry x="982" y="731" width="97" height="26" as="geometry" />
        </mxCell>
        <mxCell id="zvBkrl2XRBxhGwxwOTIy-10" value="" style="endArrow=classic;html=1;rounded=0;" parent="1" edge="1">
          <mxGeometry width="50" height="50" relative="1" as="geometry">
            <mxPoint x="1036" y="694" as="sourcePoint" />
            <mxPoint x="946" y="694" as="targetPoint" />
          </mxGeometry>
        </mxCell>
        <mxCell id="zvBkrl2XRBxhGwxwOTIy-11" value="2.startInterface()" style="text;html=1;align=center;verticalAlign=middle;resizable=0;points=[];autosize=1;strokeColor=none;fillColor=none;" parent="1" vertex="1">
          <mxGeometry x="933" y="694" width="110" height="30" as="geometry" />
        </mxCell>
      </root>
    </mxGraphModel>
  </diagram>
</mxfile>
